# xmcd CD database file
#
# Track frame offsets:
#	150
#	11927
#	25510
#	41490
#	58650
#	73347
#	88455
#	106460
#	117562
#	129572
#	154112
#	169605
#	185382
#	197825
#	213942
#	230810
#	246595
#	266515
#	280165
#	294920
#
# Disc length: 4076 seconds
#
# Revision: 0
# Processed by: cddbd v1.4PL0 Copyright (c) Steve Scherf et al.
# Submitted via: CDex 1.50beta10
#
DISCID=320fea14
DTITLE=Grant Chilcott's Wentworth-Brewster Ensemble - On The Other Side Of The Tracks
DYEAR=1900
DGENRE=Jazz
TTITLE0=On The Sunny Side Of The Street
TTITLE1=It's A Most Unusual Day
TTITLE2=Cuban Love Song
TTITLE3=Exactly Like You
TTITLE4=The Best Is Yet To Come
TTITLE5=Baby Dream Your Dream
TTITLE6=I Believe In You
TTITLE7=Witchcraft
TTITLE8=I've Got Your Number
TTITLE9=Can't Get Out Of This Mood
TTITLE10=Let's Get Lost
TTITLE11=I Won't Dance
TTITLE12=When In Rome
TTITLE13=I'm In The Mood For Love
TTITLE14=A Lovely Way To Spend An Evening
TTITLE15=If I Were A Bell
TTITLE16=I've Never Been In Love Before
TTITLE17=I Can't Give You Anything But Love
TTITLE18=I Can't Believe That You Are In Love With Me
TTITLE19=On The Other Side Of The Tracks
EXTD=
EXTT0=
EXTT1=
EXTT2=
EXTT3=
EXTT4=
EXTT5=
EXTT6=
EXTT7=
EXTT8=
EXTT9=
EXTT10=
EXTT11=
EXTT12=
EXTT13=
EXTT14=
EXTT15=
EXTT16=
EXTT17=
EXTT18=
EXTT19=
PLAYORDER=
